<svg width="12" height="14" viewBox="0 0 12 14" fill="none" xmlns="http://www.w3.org/2000/svg">
<path d="M6.04969 7.71499C6.25171 7.6344 6.45917 7.53271 6.66827 7.41203L6.74676 7.36595C6.92937 7.25651 7.0978 7.14082 7.2495 7.02055L10.4163 12.3859L9.22232 13.0902L6.04969 7.71499ZM4.34636 7.72905C4.38262 7.75483 4.4205 7.77806 4.46016 7.79843C4.80428 7.97512 5.25622 7.9691 5.75502 7.81847L4.87932 11.2139L3.53684 10.8679L4.34636 7.72905ZM11.2177 6.33747L10.8716 7.67948L7.49375 6.80885C7.8637 6.45669 8.08836 6.0742 8.10707 5.69364C8.10969 5.64031 8.10751 5.58712 8.10101 5.53414L11.2177 6.33747ZM10.0924 2.15838L10.7969 3.35199L7.91873 5.0496C7.70301 4.70475 7.31584 4.37751 6.82369 4.08634L10.0924 2.15838ZM3.70997 5.92291C3.7201 6.49826 3.81645 6.99741 4.01698 7.35097L1.1274 9.05533L0.422892 7.86172L3.70997 5.92291ZM3.88304 4.44697C3.77056 4.80258 3.71779 5.23652 3.70979 5.7167C3.70914 5.75588 3.70892 5.79477 3.70901 5.83334L-6.43817e-06 4.87735L0.346055 3.53538L3.88304 4.44697ZM7.68241 0.346034L6.7314 4.03293C6.71396 4.02303 6.6965 4.01301 6.67883 4.0032C6.23692 3.75787 5.81459 3.58093 5.43549 3.50638L6.33993 1.43524e-05L7.68241 0.346034ZM5.15382 3.46995C4.89874 3.45566 4.669 3.49842 4.47326 3.61139C4.25742 3.73597 4.0947 3.93895 3.976 4.20166L2.28146 1.33068L3.47547 0.62642L5.15382 3.46995Z" fill="black" fill-opacity="0.9"/>
</svg>
