<svg width="14" height="16" viewBox="0 0 14 16" fill="none" xmlns="http://www.w3.org/2000/svg">
<path d="M7.03982 8.97765C7.2749 8.88387 7.51631 8.76554 7.75964 8.62511L7.85097 8.57148C8.06347 8.44413 8.25946 8.3095 8.43599 8.16955L12.1211 14.413L10.7317 15.2326L7.03982 8.97765ZM5.05771 8.99401C5.09991 9.024 5.14399 9.05104 5.19015 9.07474C5.59058 9.28035 6.11649 9.27334 6.69692 9.09806L5.6779 13.0492L4.11571 12.6465L5.05771 8.99401ZM13.0536 7.37467L12.6509 8.93633L8.72022 7.92321C9.15071 7.51341 9.41214 7.06831 9.43391 6.62547C9.43696 6.56342 9.43443 6.50153 9.42686 6.43988L13.0536 7.37467ZM11.7441 2.51163L12.5639 3.90058L9.21475 5.87603C8.96372 5.47474 8.51318 5.09395 7.94049 4.75512L11.7441 2.51163ZM4.31717 6.89227C4.32896 7.56179 4.44108 8.14262 4.67443 8.55404L1.31193 10.5373L0.492125 9.1484L4.31717 6.89227ZM4.51856 5.17477C4.38767 5.58858 4.32627 6.09355 4.31696 6.65231C4.3162 6.69791 4.31595 6.74316 4.31605 6.78804L1.38114e-05 5.67559L0.402712 4.11399L4.51856 5.17477ZM8.93975 0.40267L7.8331 4.69297C7.81281 4.68145 7.79249 4.66979 7.77192 4.65837C7.25769 4.37289 6.76624 4.16699 6.3251 4.08024L7.37756 2.01927e-05L8.93975 0.40267ZM5.99733 4.03786C5.7005 4.02122 5.43315 4.07099 5.20539 4.20244C4.95422 4.34741 4.76487 4.58361 4.62675 4.88931L2.65487 1.54847L4.0443 0.728944L5.99733 4.03786Z" fill="white"/>
</svg>
