<svg width="20" height="20" viewBox="0 0 20 20" fill="none" xmlns="http://www.w3.org/2000/svg">
<g clip-path="url(#clip0_948_15981)">
<path d="M0.0400391 10C0.0400391 4.477 4.51604 0 10.04 0C15.562 0 20.04 4.477 20.04 10C20.04 15.523 15.562 20 10.04 20C4.51604 20 0.0400391 15.523 0.0400391 10Z" fill="#FC3F1D"/>
<path d="M11.3202 5.66606H10.3962C8.70223 5.66606 7.81123 6.52406 7.81123 7.78906C7.81123 9.21906 8.42724 9.88906 9.69223 10.7481L10.7372 11.4521L7.73423 15.9391H5.49023L8.18524 11.9251C6.63524 10.8141 5.76523 9.73506 5.76523 7.91006C5.76523 5.62206 7.36023 4.06006 10.3852 4.06006H13.3882V15.9281H11.3202V5.66606Z" fill="white"/>
</g>
<defs>
<clipPath id="clip0_948_15981">
<rect width="20" height="20" fill="white"/>
</clipPath>
</defs>
</svg>
