<svg width="213" height="50" viewBox="0 0 213 50" fill="none" xmlns="http://www.w3.org/2000/svg">
<g clip-path="url(#clip0_151_9319)">
<path d="M22.8479 27.6491C23.4487 27.4094 24.0657 27.1068 24.6876 26.7478L24.9211 26.6106C25.4642 26.285 25.9651 25.9408 26.4163 25.583L35.8351 41.5462L32.2839 43.6416L22.8479 27.6491ZM17.7818 27.691C17.8896 27.7677 18.0023 27.8368 18.1203 27.8974C19.1437 28.4231 20.4879 28.4052 21.9714 27.957L19.3669 38.0592L15.3741 37.0297L17.7818 27.691ZM38.2186 23.5507L37.1891 27.5435L27.1428 24.9532C28.2431 23.9054 28.9113 22.7674 28.9669 21.6352C28.9747 21.4765 28.9682 21.3182 28.9489 21.1606L38.2186 23.5507ZM34.8716 11.117L36.9669 14.6682L28.4067 19.719C27.7652 18.693 26.6136 17.7194 25.1499 16.8531L34.8716 11.117ZM15.889 22.3173C15.9192 24.0291 16.2057 25.5142 16.8021 26.5661L8.20792 31.6369L6.11258 28.0857L15.889 22.3173ZM16.4038 17.926C16.0692 18.984 15.9123 20.2751 15.8885 21.7038C15.8866 21.8204 15.8859 21.9361 15.8862 22.0508L4.85479 19.2065L5.88405 15.2139L16.4038 17.926ZM27.7039 5.72483L24.8754 16.6942C24.8235 16.6647 24.7716 16.6349 24.719 16.6057C23.4047 15.8758 22.1486 15.3494 21.0211 15.1276L23.7111 4.69534L27.7039 5.72483ZM20.1833 15.0192C19.4247 14.9767 18.7414 15.1039 18.1592 15.44C17.5173 15.8106 17.0333 16.4146 16.6803 17.1962L11.6403 8.65438L15.1916 6.55904L20.1833 15.0192Z" fill="white"/>
</g>
<path d="M75.3701 15.4401C76.3832 15.4401 77.3534 15.6235 78.2803 15.9899C79.2287 16.3348 80.0689 16.8636 80.8018 17.5749C81.5346 18.2862 82.1168 19.1701 82.5479 20.2263C82.9789 21.2824 83.1943 22.5215 83.1943 23.944C83.1943 25.4098 82.9576 26.7031 82.4834 27.8239C82.0093 28.9231 81.3842 29.8498 80.6084 30.6042C79.854 31.3371 78.9915 31.8978 78.0215 32.2858C77.0731 32.6738 76.1135 32.8679 75.1436 32.8679C74.0013 32.8678 72.9775 32.6845 72.0723 32.3181C71.167 31.9516 70.3801 31.4452 69.7119 30.7985V38.2673H65.9287V15.7966H69.5176L69.6152 18.0915C70.2834 17.251 71.1132 16.6046 72.1045 16.152C73.096 15.6778 74.1846 15.4401 75.3701 15.4401ZM93.8408 15.4401C95.0478 15.4402 96.1792 15.6458 97.2354 16.0554C98.2913 16.4648 99.2182 17.057 100.016 17.8327C100.813 18.5871 101.439 19.504 101.892 20.5817C102.344 21.6378 102.57 22.8236 102.57 24.1384C102.57 25.4746 102.344 26.6818 101.892 27.7595C101.439 28.8156 100.813 29.7315 100.016 30.5075C99.2181 31.2618 98.2915 31.8441 97.2354 32.2536C96.1793 32.6631 95.0478 32.8678 93.8408 32.8679C92.6337 32.8679 91.5015 32.6631 90.4453 32.2536C89.4108 31.8441 88.4948 31.2619 87.6973 30.5075C86.9214 29.7316 86.3071 28.8156 85.8545 27.7595C85.4019 26.6818 85.1758 25.4746 85.1758 24.1384C85.1758 22.8236 85.4019 21.6379 85.8545 20.5817C86.3071 19.504 86.9213 18.5871 87.6973 17.8327C88.4947 17.0569 89.4109 16.4649 90.4453 16.0554C91.5015 15.6458 92.6337 15.4401 93.8408 15.4401ZM184.674 15.4401C187.174 15.4401 189.06 16.0116 190.332 17.154C191.604 18.2748 192.239 20.1503 192.239 22.78V32.5446H188.554C188.532 32.3722 188.521 32.1238 188.521 31.8005V30.7663C188.004 31.3914 187.346 31.8978 186.549 32.2858C185.773 32.6737 184.835 32.8678 183.736 32.8679C182.896 32.8679 182.119 32.7495 181.408 32.5124C180.718 32.2753 180.115 31.9406 179.598 31.5095C179.102 31.0568 178.714 30.5183 178.434 29.8932C178.153 29.2467 178.014 28.5139 178.014 27.695C178.014 26.7681 178.175 25.959 178.498 25.2692C178.843 24.5581 179.318 23.9767 179.921 23.5241C180.546 23.0715 181.268 22.7367 182.087 22.5212C182.928 22.2841 183.855 22.1657 184.868 22.1657C185.622 22.1657 186.29 22.2201 186.872 22.3278C187.476 22.4356 188.004 22.5753 188.457 22.7477C188.414 21.3252 188.047 20.3122 187.357 19.7087C186.668 19.0836 185.558 18.7712 184.027 18.7712C182.389 18.7712 180.783 19.073 179.21 19.6765V16.2809C179.964 16.0439 180.815 15.8498 181.764 15.6989C182.734 15.5265 183.704 15.4401 184.674 15.4401ZM211.142 11.6257C210.948 11.7334 210.731 11.8305 210.494 11.9167C210.257 11.9813 209.955 12.0561 209.589 12.1423C209.223 12.2069 208.77 12.2827 208.231 12.3688C207.693 12.4335 207.024 12.4985 206.227 12.5632C204.847 12.6925 203.672 12.9186 202.702 13.2419C201.732 13.5437 200.935 14.0181 200.31 14.6647C199.879 15.0957 199.523 15.6238 199.243 16.2487C198.963 16.8523 198.736 17.5857 198.563 18.4479C199.232 17.5426 200.062 16.8635 201.054 16.4108C202.067 15.9367 203.209 15.6989 204.48 15.6989C205.623 15.6989 206.679 15.9036 207.649 16.3132C208.641 16.7011 209.492 17.2621 210.203 17.9948C210.936 18.7061 211.507 19.5793 211.917 20.614C212.326 21.6485 212.531 22.7907 212.531 24.0407C212.531 25.4418 212.295 26.6924 211.82 27.7917C211.368 28.8693 210.743 29.7854 209.945 30.5397C209.169 31.2942 208.252 31.8763 207.196 32.2858C206.162 32.6737 205.062 32.8679 203.898 32.8679C202.692 32.8678 201.549 32.6631 200.472 32.2536C199.415 31.8441 198.488 31.2192 197.69 30.3786C196.893 29.538 196.268 28.4707 195.815 27.1774C195.363 25.8626 195.137 24.3103 195.137 22.5212C195.137 20.064 195.395 17.9944 195.912 16.3132C196.429 14.632 197.239 13.2522 198.338 12.1745C199.243 11.2909 200.332 10.6125 201.604 10.1384C202.897 9.66421 204.416 9.35077 206.162 9.19989C206.916 9.13524 207.552 9.07118 208.069 9.00653C208.608 8.92031 209.061 8.83396 209.428 8.74774C209.816 8.66154 210.139 8.57516 210.397 8.48895C210.656 8.38118 210.904 8.27349 211.142 8.16571V11.6257ZM62.0576 32.5446H58.2744V18.9968H51.5176V32.5446H47.7344V15.7966H62.0576V32.5446ZM115.272 26.11L120.446 15.7643H125.134L125.167 32.5446H121.384V20.7106L116.308 30.9929H113.624L108.839 20.614V32.5446H105.476V15.7643H110.326L115.272 26.11ZM143.361 32.5446H139.579V18.9968H132.821V32.5446H129.038V15.7966H143.361V32.5446ZM160.005 18.9968H154.799V32.5446H151.016V18.9968H145.907V15.7966H160.005V18.9968ZM169.121 21.196L172.871 15.7966H176.59L171.061 23.8151L176.945 32.5446H172.548L168.539 26.5309L164.368 32.5446H160.585L166.599 23.944L161.167 15.7966H165.532L169.121 21.196ZM185.417 24.7526C184.296 24.7527 183.402 24.9894 182.733 25.4636C182.087 25.9162 181.764 26.6169 181.764 27.5651C181.764 28.3196 182.012 28.923 182.508 29.3757C183.025 29.8283 183.747 30.0554 184.674 30.0554C185.299 30.0553 185.837 29.9582 186.29 29.7643C186.764 29.5489 187.152 29.2576 187.454 28.8913C187.777 28.5249 188.015 28.0931 188.166 27.5974C188.338 27.1017 188.435 26.5629 188.457 25.9811V25.3669C188.112 25.216 187.67 25.0753 187.131 24.946C186.614 24.8167 186.042 24.7526 185.417 24.7526ZM74.4971 18.7712C73.872 18.7712 73.2685 18.8896 72.6865 19.1266C72.1047 19.3637 71.5873 19.7083 71.1348 20.1608C70.6821 20.6135 70.3154 21.1743 70.0352 21.8425C69.755 22.5107 69.6152 23.2869 69.6152 24.1706C69.6153 25.0543 69.755 25.8412 70.0352 26.5309C70.3153 27.199 70.6822 27.759 71.1348 28.2116C71.5874 28.6643 72.1045 29.0097 72.6865 29.2468C73.2685 29.4623 73.872 29.57 74.4971 29.57C75.1221 29.57 75.7257 29.4516 76.3076 29.2145C76.8896 28.9774 77.3961 28.632 77.8271 28.1794C78.2798 27.7052 78.6359 27.1337 78.8945 26.4655C79.1746 25.7975 79.3144 25.0325 79.3145 24.1706C79.3145 23.3084 79.1747 22.5429 78.8945 21.8747C78.6359 21.2065 78.2798 20.6457 77.8271 20.1931C77.3961 19.719 76.8894 19.3637 76.3076 19.1266C75.7257 18.8896 75.1221 18.7712 74.4971 18.7712ZM203.931 18.9968C203.327 18.9968 202.724 19.1045 202.12 19.32C201.538 19.514 201.01 19.8274 200.536 20.2585C200.084 20.6896 199.717 21.2281 199.437 21.8747C199.156 22.5213 199.017 23.2869 199.017 24.1706C199.017 25.0325 199.146 25.7975 199.404 26.4655C199.685 27.1122 200.041 27.6623 200.472 28.1149C200.924 28.5675 201.442 28.912 202.023 29.1491C202.605 29.3862 203.209 29.5055 203.834 29.5056C204.459 29.5056 205.063 29.3862 205.645 29.1491C206.226 28.912 206.733 28.5675 207.164 28.1149C207.617 27.6623 207.973 27.1122 208.231 26.4655C208.49 25.7975 208.619 25.0432 208.619 24.2028C208.619 23.3406 208.49 22.5858 208.231 21.9391C207.973 21.2926 207.627 20.754 207.196 20.3229C206.765 19.8919 206.269 19.5687 205.709 19.3532C205.149 19.1161 204.556 18.9968 203.931 18.9968ZM93.8408 18.8679C93.2159 18.8679 92.6121 18.9863 92.0303 19.2233C91.4483 19.4604 90.9302 19.8058 90.4775 20.2585C90.0466 20.711 89.6913 21.2605 89.4111 21.9069C89.1525 22.5536 89.0225 23.2977 89.0225 24.1384C89.0225 24.9789 89.1525 25.7223 89.4111 26.3688C89.6913 27.0155 90.0464 27.5656 90.4775 28.0182C90.9302 28.4709 91.4483 28.8153 92.0303 29.0524C92.6122 29.2895 93.2158 29.4079 93.8408 29.4079C94.4658 29.4079 95.0695 29.2895 95.6514 29.0524C96.2332 28.8153 96.7506 28.4708 97.2031 28.0182C97.6558 27.5656 98.0118 27.0155 98.2705 26.3688C98.5506 25.7223 98.6904 24.9788 98.6904 24.1384C98.6904 23.2977 98.5507 22.5536 98.2705 21.9069C98.0119 21.2604 97.6557 20.7111 97.2031 20.2585C96.7505 19.8059 96.2333 19.4604 95.6514 19.2233C95.0695 18.9863 94.4658 18.8679 93.8408 18.8679Z" fill="white"/>
<defs>
<clipPath id="clip0_151_9319">
<rect width="42.1053" height="42.1053" fill="white" transform="translate(0.789551 2.63159)"/>
</clipPath>
</defs>
</svg>
